<?xml version="1.0" standalone="no"?><!DOCTYPE svg PUBLIC "-//W3C//DTD SVG 1.1//EN" "http://www.w3.org/Graphics/SVG/1.1/DTD/svg11.dtd"><svg t="1588083148541" class="icon" viewBox="0 0 1053 1024" version="1.1" xmlns="http://www.w3.org/2000/svg" p-id="8432" xmlns:xlink="http://www.w3.org/1999/xlink" width="65.8125" height="64"><defs><style type="text/css"></style></defs><path d="M1053.252261 214.605836a36.317911 36.317911 0 0 0-14.857327-26.413026L744.55002 5.447687a33.016282 33.016282 0 0 0-37.968724 1.650814l-179.93874 145.271642L346.703817 7.098501a33.016282 33.016282 0 0 0-37.968725-1.650814L14.890178 188.688054A31.200387 31.200387 0 0 0 0.032851 214.605836a36.152829 36.152829 0 0 0 11.555699 28.06384L181.622405 386.785749l-145.271643 113.906174A35.327422 35.327422 0 0 0 23.144249 528.260519a36.317911 36.317911 0 0 0 14.857327 26.413026l135.366758 90.794777a35.162341 35.162341 0 0 0-11.555699 24.762212v132.065129a34.006771 34.006771 0 0 0 16.508141 28.06384l331.813639 188.19281a31.860713 31.860713 0 0 0 16.508141 4.952443 27.898759 27.898759 0 0 0 16.508141-4.952443l328.512011-188.19281a34.006771 34.006771 0 0 0 16.508141-28.06384v-161.779784l128.763501-85.842334a33.016282 33.016282 0 0 0 14.857328-26.413026 37.803643 37.803643 0 0 0-13.206513-28.06384l-145.271643-113.906174 170.033854-143.620829a38.794132 38.794132 0 0 0 9.904885-28.06384zM757.756533 386.785749l-231.113977 145.271643-231.113977-145.271643 231.113977-150.224085z m-671.881347-165.081412l236.066419-146.922457 146.922457 118.858617-234.415605 151.874899z m148.573271 206.351765l232.764791 145.271643-132.06513 100.699661-224.510721-150.224085z m-8.254071 254.225375L318.639977 742.866355a33.016282 33.016282 0 0 0 37.968725-1.650814l133.715943-102.350476v292.1941l-264.130259-148.573271v-100.699662z m594.293084 100.699661l-264.13026 150.224085v-297.146542l137.017573 105.652104a31.695631 31.695631 0 0 0 19.809769 6.603257 33.016282 33.016282 0 0 0 18.158955-4.952443l89.143963-59.429308z m118.858617-257.527003l-224.510721 150.224085-132.06513-100.699661 232.764792-146.922457z m-123.811059-179.938739l-234.415606-151.874899 146.922457-118.858617 236.06642 146.922457z" p-id="8433" fill="#707070"></path></svg>